<svg width="66" height="32" viewBox="0 0 66 32" fill="none" xmlns="http://www.w3.org/2000/svg">
<rect width="66" height="32" rx="5" fill="white"/>
<path d="M15.5973 11.8466L14.7634 9.84658L13.9344 11.8466H15.5973ZM33.9588 11.05C33.7913 11.1505 33.5935 11.1537 33.3564 11.1537H31.8766V10.0396H33.3762C33.5884 10.0396 33.8099 10.0483 33.9537 10.1293C34.1114 10.2031 34.2089 10.3587 34.2089 10.5735C34.2094 10.7924 34.1161 10.969 33.9588 11.05ZM44.5119 11.8466L43.6696 9.84658L42.8318 11.8466H44.5119ZM24.8398 14.0113H23.5911L23.5865 10.0819L21.8207 14.0113H20.7514L18.9814 10.0786V14.0113H16.5043L16.0364 12.8922H13.5013L13.0284 14.0113H11.706L13.8864 8.99441H15.6961L17.7669 13.7441V8.99441H19.7541L21.3478 12.3977L22.8116 8.99441H24.8397V14.0113H24.8398ZM29.8154 14.0113H25.7473V8.99441H29.8155V10.0396H26.9656V10.9439H29.7472V11.9724H26.9656V12.973H29.8155L29.8154 14.0113ZM35.5512 10.3461C35.5512 11.1451 35.0087 11.5594 34.6928 11.6828C34.9594 11.7832 35.1872 11.9594 35.2952 12.106C35.4673 12.3547 35.4972 12.5781 35.4972 13.0254V14.0113H34.2688L34.2642 13.3787C34.2642 13.0767 34.2933 12.6419 34.0718 12.401C33.8938 12.2248 33.623 12.1863 33.1842 12.1863H31.8766V14.0113H30.6588V8.99441H33.4602C34.0829 8.99441 34.5414 9.0104 34.9345 9.23456C35.3201 9.45948 35.5512 9.78603 35.5512 10.3461ZM37.5001 14.0113H36.2577V8.99485H37.5001V14.0113ZM51.9148 14.0113H50.1886L47.8808 10.2457V14.0113H45.4003L44.927 12.8922H42.3973L41.9371 14.0113H40.5121C39.9207 14.0113 39.1706 13.8822 38.7463 13.4561C38.3181 13.0303 38.0958 12.4535 38.0958 11.541C38.0958 10.7976 38.2283 10.1163 38.7526 9.57994C39.1462 9.17926 39.7629 8.99441 40.602 8.99441H41.7805V10.0692H40.6264C40.1822 10.0692 39.9316 10.1344 39.6896 10.3667C39.482 10.5785 39.3394 10.9777 39.3394 11.5034C39.3394 12.0405 39.4482 12.4282 39.6748 12.681C39.8617 12.8798 40.2025 12.94 40.5232 12.94H41.0698L42.7863 8.99496H44.6112L46.6727 13.7401V8.99496H48.5271L50.6676 12.4884V8.99496H51.9149L51.9148 14.0113ZM11.692 14.9967H13.7724L14.2415 13.8822H15.2915L15.7593 14.9967H19.8533V14.1449L20.219 15H22.3438L22.7091 14.1322V14.9967H32.883L32.8779 13.1672H33.0749C33.2129 13.1721 33.2529 13.1848 33.2529 13.409V14.9967H38.515V14.571C38.9398 14.7951 39.5999 14.9967 40.4689 14.9967H42.6823L43.156 13.8822H44.2064L44.6696 14.9967H48.9352V13.9379L49.5814 14.9967H53V8H49.6164V8.82643L49.1431 8H45.6713V8.82643L45.2369 8H40.5475C39.7633 8 39.0732 8.10819 38.5155 8.40856V8H35.2796V8.40856C34.9253 8.09877 34.4423 8 33.9044 8H22.0824L21.2893 9.80694L20.4747 8H16.7506V8.82643L16.3414 8H13.1664L11.6912 11.3267L10 14.9967H11.692Z" fill="#009FDB"/>
<path d="M55.6085 20.2099V17H54.7637H52.5504C51.8684 17 51.3723 17.1602 51.0219 17.4089V17H47.6788C47.1442 17 46.5163 17.1294 46.2204 17.4089V17H40.2494V17.4089C39.7746 17.0729 38.9724 17 38.6029 17H34.6648V17.4089C34.2889 17.052 33.4533 17 32.9437 17H28.5366L27.5281 18.0706L26.5835 17H20V23.9959H26.4591L27.4985 22.9085L28.477 23.9959L32.459 24V22.3537H32.8501C33.3782 22.3619 34.0012 22.341 34.5508 22.1079V23.9955H37.8352V22.1717H37.9942C38.1964 22.1717 38.2158 22.1804 38.2158 22.3782V23.9955H48.192C48.8258 23.9955 49.4881 23.8361 49.855 23.5481V23.9955H53.0189C53.6777 23.9955 54.3209 23.9049 54.8101 23.673V23.6657C55.5248 23.219 56 22.4365 56 21.5433C56.0009 21.0531 55.8564 20.5963 55.6085 20.2099ZM32.9047 21.3293H31.3808V23.0113H29.0072L27.5031 21.351L25.9406 23.0113H21.1028V17.9968H26.0151L27.5175 19.6403L29.0711 17.9968H32.9737C33.9424 17.9968 35.0313 18.2603 35.0313 19.6485C35.0313 21.042 33.972 21.3293 32.9047 21.3293ZM40.2545 21.1018C40.4271 21.3465 40.4519 21.5747 40.457 22.0172V23.0113H39.2315V22.3839C39.2315 22.0823 39.2607 21.6358 39.0337 21.4022C38.8548 21.2227 38.5838 21.1793 38.1376 21.1793H36.8322V23.0112H35.6055V17.9967H38.4251C39.0433 17.9967 39.4933 18.0233 39.8946 18.2336C40.2803 18.4618 40.5226 18.7744 40.5226 19.3468C40.5226 20.1471 39.9783 20.556 39.657 20.6809C39.9276 20.7795 40.1504 20.9557 40.2545 21.1018ZM45.2751 19.0344H42.4149V19.946H45.2054V20.9691H42.4149V21.9668L45.2751 21.9717V23.012H41.1992V17.9968H45.2751V19.0344ZM48.3852 23.0117H46.0067V21.9362H48.3764C48.6081 21.9362 48.7722 21.9067 48.8753 21.8117C48.9586 21.7347 49.0195 21.6216 49.0195 21.4855C49.0195 21.3392 48.9544 21.223 48.8702 21.1532C48.7763 21.0762 48.6483 21.0422 48.4355 21.0422C47.2933 21.0045 45.8628 21.0765 45.8628 19.4896C45.8628 18.7623 46.3287 17.9969 47.6088 17.9969H50.0577V19.0643H47.8173C47.5954 19.0643 47.4507 19.0725 47.3276 19.1544C47.1944 19.236 47.1441 19.356 47.1441 19.5158C47.1441 19.7047 47.2583 19.8333 47.4114 19.8895C47.5408 19.933 47.6787 19.9457 47.8867 19.9457L48.5447 19.9641C49.2072 19.9792 49.6627 20.0923 49.9392 20.3668C50.1773 20.6078 50.3041 20.9126 50.3041 21.4285C50.3038 22.5077 49.6175 23.0117 48.3852 23.0117ZM54.6711 22.5274C54.3494 22.8466 53.8304 23.0117 53.1535 23.0117H50.7947V21.9362H53.1436C53.377 21.9362 53.5403 21.9067 53.6384 21.8117C53.7234 21.7347 53.7826 21.6216 53.7826 21.4855C53.7826 21.3392 53.7234 21.223 53.6333 21.1532C53.5449 21.0762 53.416 21.0422 53.2029 21.0422C52.056 21.0045 50.6255 21.0765 50.6255 19.4896C50.6255 18.7623 51.0958 17.9969 52.3779 17.9969H54.7641V19.0639H52.5851C52.3635 19.0639 52.2156 19.0726 52.0908 19.1545C51.9619 19.2357 51.9124 19.3561 51.9124 19.5151C51.9124 19.7048 52.0211 19.8327 52.1797 19.8889C52.3091 19.9331 52.4469 19.9458 52.6499 19.9458L53.3117 19.9634C53.9798 19.9794 54.426 20.0921 54.697 20.3671C54.7465 20.4052 54.7764 20.4482 54.8111 20.4908C54.7972 20.4732 54.7837 20.4564 54.7693 20.4388C54.9808 20.7133 55.108 21.0546 55.108 21.4254C55.1079 21.8505 54.9409 22.2361 54.6711 22.5274ZM25.3812 19.0344L26.7175 20.4955L25.322 21.9665H22.3189V20.9688H25.0003V19.9457H22.3189V19.0344H25.3812ZM28.2897 20.5127L30.1651 18.5357V22.5556L28.2897 20.5127ZM33.7209 19.6489C33.7209 20.0837 33.4286 20.3111 32.9593 20.3111H31.3812V19.0344H32.9741C33.4143 19.0344 33.7209 19.2101 33.7209 19.6489ZM39.1715 19.576C39.1715 19.7903 39.0768 19.9632 38.9183 20.0571C38.7551 20.1521 38.5529 20.1603 38.3157 20.1603H36.8314V19.0344H38.3351C38.5529 19.0344 38.7707 19.0389 38.9183 19.1249C39.0773 19.2057 39.1715 19.3609 39.1715 19.576Z" fill="#009FDB"/>
</svg>
