<svg width="16" height="16" viewBox="0 0 16 16" fill="none" xmlns="http://www.w3.org/2000/svg">
<path fill-rule="evenodd" clip-rule="evenodd" d="M12.547 9.67393C12.065 9.19793 11.4636 9.19793 10.985 9.67393C10.6196 10.0359 10.2543 10.3979 9.89496 10.7666C9.79696 10.8679 9.71363 10.8893 9.5943 10.8219C9.35763 10.6926 9.1063 10.5886 8.87896 10.4473C7.8203 9.78126 6.93363 8.92459 6.14763 7.96126C5.75763 7.48193 5.41096 6.96993 5.1683 6.39259C5.11896 6.27593 5.1283 6.19926 5.22363 6.10459C5.58896 5.75126 5.94496 5.38926 6.3043 5.02659C6.8043 4.52326 6.8043 3.93459 6.30096 3.42793C6.01563 3.13926 5.72963 2.85659 5.44496 2.56859C5.14963 2.27393 4.8583 1.97593 4.56096 1.68459C4.07896 1.21526 3.47763 1.21526 2.9983 1.68793C2.6303 2.04926 2.27696 2.42126 1.90296 2.77726C1.55563 3.10526 1.38096 3.50726 1.3443 3.97726C1.28563 4.74126 1.47296 5.46259 1.73696 6.16526C2.27696 7.62059 3.09963 8.91259 4.09696 10.0973C5.44496 11.6999 7.05296 12.9673 8.9343 13.8819C9.78163 14.2933 10.659 14.6093 11.6143 14.6613C12.2703 14.6986 12.8416 14.5326 13.299 14.0199C13.6123 13.6699 13.965 13.3506 14.2963 13.0166C14.7876 12.5193 14.7903 11.9173 14.3023 11.4259C13.7196 10.8406 13.133 10.2573 12.547 9.67393Z" stroke="white" stroke-width="1.5" stroke-linecap="round" stroke-linejoin="round"/>
</svg>
