<svg width="62" height="32" viewBox="0 0 62 32" fill="none" xmlns="http://www.w3.org/2000/svg">
<rect y="0.5" width="62" height="31" rx="5" fill="white"/>
<path d="M32.1738 16.5C34.383 16.5 36.1738 14.933 36.1738 13C36.1738 11.067 34.383 9.5 32.1738 9.5C29.9647 9.5 28.1738 11.067 28.1738 13C28.1738 14.933 29.9647 16.5 32.1738 16.5Z" fill="#F26E21"/>
<path d="M13.4433 14.9651C13.0315 15.3338 12.5 15.4936 11.656 15.4936H11.3058V11.1053H11.656C12.4999 11.1053 13.0104 11.2546 13.4433 11.6421C13.8947 12.0402 14.1639 12.6564 14.1639 13.2932C14.1639 13.9303 13.8947 14.5682 13.4433 14.9651ZM11.9177 9.98145H10V16.6164H11.9081C12.9207 16.6164 13.6526 16.379 14.2949 15.8506C15.0566 15.2239 15.5088 14.2789 15.5088 13.3019C15.5087 11.343 14.0331 9.98145 11.9177 9.98145Z" fill="#0B161F"/>
<path d="M16.1104 16.6164H17.4141V9.98145H16.1104V16.6164Z" fill="#0B161F"/>
<path d="M20.6061 12.5263C19.8225 12.2381 19.5918 12.0485 19.5918 11.692C19.5918 11.2738 20.0024 10.9554 20.5649 10.9554C20.9563 10.9554 21.2768 11.1144 21.6195 11.4915L22.3003 10.6072C21.7391 10.119 21.0671 9.87061 20.3339 9.87061C19.151 9.87061 18.2475 10.6865 18.2475 11.7695C18.2475 12.6861 18.6682 13.1533 19.893 13.5921C20.4048 13.7703 20.6648 13.889 20.7957 13.97C21.0562 14.1395 21.1875 14.3772 21.1875 14.6558C21.1875 15.194 20.7559 15.5912 20.1732 15.5912C19.5511 15.5912 19.0499 15.2834 18.7487 14.7061L17.9072 15.5127C18.5079 16.3869 19.2303 16.7766 20.2243 16.7766C21.5782 16.7766 22.5309 15.8797 22.5309 14.5971C22.5314 13.5418 22.091 13.0641 20.6061 12.5263Z" fill="#0B161F"/>
<path d="M22.9424 13.3016C22.9424 15.2538 24.4877 16.7659 26.4743 16.7659C27.0364 16.7659 27.5171 16.6556 28.1097 16.3787V14.8549C27.5876 15.3729 27.1257 15.5815 26.5338 15.5815C25.2196 15.5815 24.2864 14.636 24.2864 13.2924C24.2864 12.0194 25.2494 11.014 26.4743 11.014C27.0951 11.014 27.5674 11.2324 28.1097 11.7602V10.2375C27.5385 9.94977 27.0657 9.83105 26.5036 9.83105C24.5278 9.8315 22.9424 11.3738 22.9424 13.3016Z" fill="#0B161F"/>
<path d="M38.6833 14.4383L36.8971 9.98145H35.4727L38.3129 16.7864H39.0142L41.9043 9.98145H40.4895L38.6833 14.4383Z" fill="#0B161F"/>
<path d="M42.4966 16.6164H46.1979V15.4936H43.8007V13.7009H46.1061V12.578H43.8007V11.1052H46.1979V9.98145H42.4966V16.6164Z" fill="#0B161F"/>
<path d="M48.7449 13.0356H48.3649V11.0247H48.7654C49.5796 11.0247 50.0213 11.3645 50.0213 12.0099C50.0213 12.676 49.5796 13.0356 48.7449 13.0356ZM51.3632 11.9395C51.3632 10.6967 50.5012 9.98145 48.9954 9.98145H47.0596V16.6164H48.3646V13.95H48.5357L50.3402 16.6164H51.9456L49.8378 13.8212C50.8225 13.6224 51.3632 12.9551 51.3632 11.9395Z" fill="#0B161F"/>
<path d="M18.6836 22.2845V18.5L21.9975 21.2034V18.7406H22.6836V22.5L19.3697 19.8029V22.2839H18.6836V22.2845Z" fill="black"/>
<path d="M25.1738 19.9252H23.7206V20.6461H25.1316V21.072H23.7206V22.0744H25.1738V22.5H23.1738V19.5H25.1738V19.9252Z" fill="black"/>
<path d="M27.0461 19.9256V22.5H26.3038V19.9256H25.1738V19.5H28.1738V19.9256H27.0461Z" fill="black"/>
<path d="M28.7601 18.6747L29.6921 21.0772L30.6661 18.5L31.5977 21.0772L32.5872 18.6747H33.1738L31.5745 22.4973L30.6541 19.9504L29.6946 22.5L28.1738 18.6748L28.7601 18.6747Z" fill="black"/>
<path d="M33.1738 20.4836C33.1738 19.9401 33.3718 19.474 33.7663 19.0847C34.1594 18.6948 34.6324 18.5 35.1844 18.5C35.7295 18.5 36.1971 18.6963 36.5869 19.0892C36.9787 19.4828 37.1738 19.9544 37.1738 20.5062C37.1738 21.0604 36.9773 21.5311 36.5846 21.9177C36.1896 22.3056 35.7129 22.5 35.1545 22.5C34.6609 22.5 34.2167 22.3273 33.8236 21.9829C33.3906 21.6011 33.1738 21.1012 33.1738 20.4836ZM33.7566 20.4897C33.7566 20.9155 33.8989 21.2655 34.1827 21.5405C34.4651 21.8155 34.7917 21.9524 35.1622 21.9524C35.5632 21.9524 35.9021 21.8127 36.1781 21.5336C36.4541 21.2507 36.5918 20.9063 36.5918 20.5003C36.5918 20.0888 36.4555 19.7444 36.1826 19.4671C35.9116 19.1875 35.5765 19.0477 35.1765 19.0477C34.7783 19.0477 34.4422 19.1875 34.1685 19.4671C33.8939 19.7421 33.7566 20.0836 33.7566 20.4897Z" fill="black"/>
<path d="M39.251 21.2214L40.6836 22.5H39.8296L38.5081 21.2722H38.3821V22.5H37.6836V19.5H38.5016C39.1134 19.5 39.5543 19.5746 39.8265 19.7236C40.1264 19.8892 40.2762 20.1082 40.2762 20.3804C40.2762 20.5929 40.1825 20.7754 39.9941 20.928C39.8061 21.0806 39.559 21.1789 39.251 21.2214ZM38.3824 20.8775H38.6034C39.2646 20.8775 39.5957 20.7136 39.5957 20.386C39.5957 20.0788 39.2741 19.9254 38.6307 19.9254H38.3824V20.8775Z" fill="black"/>
<path d="M41.292 20.6968L42.8607 19.5H43.6729L41.8507 20.8585L43.6836 22.5H42.869L41.4174 21.1653L41.2921 21.2589V22.5H40.6836V19.5001H41.2921V20.6968H41.292Z" fill="black"/>
</svg>
