<svg width="55" height="32" viewBox="0 0 55 32" fill="none" xmlns="http://www.w3.org/2000/svg">
<rect y="0.5" width="55" height="31" rx="5" fill="white"/>
<path d="M19.4203 3.5C12.5569 3.54329 7 9.12732 7 16.0004C7 22.9005 12.5999 28.5 19.5005 28.5C22.7375 28.5 25.6897 27.2661 27.9108 25.243L27.9104 25.2426H27.9121C28.3678 24.8282 28.7921 24.3799 29.1816 23.9038H26.6212C26.2789 23.4912 25.968 23.0599 25.6889 22.6156H30.1051C30.3749 22.1862 30.617 21.7401 30.834 21.278H24.9606C24.7601 20.8487 24.5861 20.411 24.4379 19.9649H31.3567C31.7746 18.7187 32 17.3851 32 16.0004C32 15.0807 31.8999 14.1859 31.7122 13.3227H24.0707C24.1661 12.8784 24.285 12.4399 24.4268 12.0101H31.349C31.1944 11.5515 31.0144 11.1054 30.81 10.6717H24.9598C25.1706 10.2204 25.4098 9.7829 25.6766 9.35856H30.0902C29.796 8.89012 29.4713 8.44276 29.1205 8.02105H26.6596C27.0406 7.57231 27.4588 7.15026 27.9128 6.75902C25.6924 4.735 22.7399 3.50034 19.5012 3.50034C19.4731 3.5 19.4465 3.5 19.4203 3.5Z" fill="#931B1D"/>
<path d="M47.9999 16.0011C48.0011 22.9021 42.6315 28.4979 36.0022 28.5C29.3758 28.5022 24.002 22.9084 24 16.0062V16.0011C23.9979 9.09805 29.3693 3.50172 35.9969 3.5C42.6241 3.49748 47.9983 9.09164 48 15.9942C47.9999 15.9942 47.9999 15.9973 47.9999 16.0011Z" fill="#F16622"/>
<path d="M47.9999 16.0005C48.0011 22.9019 42.6315 28.4987 36.0022 28.5C29.3758 28.5025 24.002 22.9079 24 16.0069V16.0005C23.9979 9.09859 29.3693 3.50172 35.9969 3.5C42.6241 3.49748 47.9983 9.09171 48 15.9939C47.9999 15.994 47.9999 15.9979 47.9999 16.0005Z" fill="#F7981D"/>
<path d="M19.4203 3.50011C12.5569 3.54421 7 9.12677 7 16.0001C7 22.9004 12.5999 28.5 19.5005 28.5C22.7375 28.5 25.6897 27.2654 27.9108 25.2427L27.9104 25.2414H27.9121C28.3678 24.8274 28.7921 24.3805 29.1816 23.9027H26.6212C26.2789 23.4909 25.968 23.0606 25.6889 22.6162H30.1051C30.3749 22.1864 30.617 21.7391 30.834 21.2775H24.9606C24.7601 20.8477 24.5861 20.4102 24.4379 19.9649H31.3567C31.7746 18.7178 32 17.3847 32 16.0001C32 15.0809 31.8999 14.1856 31.7122 13.323H24.0707C24.1661 12.8791 24.285 12.4397 24.4268 12.0104H31.349C31.1944 11.5514 31.0144 11.1052 30.81 10.6712H24.9598C25.1706 10.2217 25.4098 9.78244 25.6766 9.35857H30.0902C29.796 8.89061 29.4713 8.44361 29.1205 8.0202H26.6596C27.0406 7.57239 27.4588 7.15024 27.9128 6.75821C25.6924 4.73461 22.7399 3.5 19.5012 3.5C19.4731 3.50011 19.4465 3.50011 19.4203 3.50011Z" fill="#CB2026"/>
<path d="M23.7472 19.5359L23.9104 18.4289C23.8215 18.4289 23.6906 18.4667 23.5752 18.4667C23.123 18.4667 23.0727 18.2259 23.102 18.0476L23.4674 15.788H24.1549L24.321 14.5627H23.673L23.8051 13.8018H22.5049C22.4767 13.8302 21.7373 18.0857 21.7373 18.6029C21.7373 19.3701 22.1664 19.7119 22.7729 19.7069C23.2468 19.7025 23.6171 19.5712 23.7472 19.5359Z" fill="white"/>
<path d="M24.1597 17.4251C24.1597 19.2661 25.3715 19.704 26.4046 19.704C27.3585 19.704 27.7775 19.4897 27.7775 19.4897L28.007 18.233C28.007 18.233 27.2818 18.5552 26.6266 18.5552C25.231 18.5552 25.4756 17.5116 25.4756 17.5116H28.1178C28.1178 17.5116 28.2876 16.6668 28.2876 16.3229C28.2876 15.4651 27.8606 14.4189 26.434 14.4189C25.1266 14.4193 24.1597 15.8299 24.1597 17.4251ZM26.4395 15.5849C27.1728 15.5849 27.0372 16.4112 27.0372 16.4779H25.5942C25.5938 16.3928 25.7302 15.5849 26.4395 15.5849Z" fill="white"/>
<path d="M34.6703 19.5356L34.9031 18.114C34.9031 18.114 34.2651 18.4362 33.8276 18.4362C32.9056 18.4362 32.536 17.7289 32.536 16.9722C32.536 15.4336 33.3293 14.5871 34.2131 14.5871C34.8751 14.5871 35.4069 14.9604 35.4069 14.9604L35.6188 13.5812C35.6188 13.5812 34.8306 13.2607 34.1553 13.2607C32.6544 13.2607 31.1938 14.564 31.1938 17.0162C31.1938 18.6395 31.9828 19.7137 33.534 19.7137C33.9722 19.7139 34.6703 19.5356 34.6703 19.5356Z" fill="white"/>
<path d="M16.5983 14.4385C15.707 14.4385 15.0236 14.725 15.0236 14.725L14.8353 15.8475C14.8353 15.8475 15.3999 15.6185 16.2518 15.6185C16.7359 15.6185 17.0895 15.6726 17.0895 16.0673C17.0895 16.3064 17.0463 16.3949 17.0463 16.3949C17.0463 16.3949 16.6651 16.3626 16.488 16.3626C15.3643 16.3626 14.1831 16.8433 14.1831 18.2938C14.1831 19.4356 14.9574 19.6981 15.4378 19.6981C16.3551 19.6981 16.7494 19.102 16.7712 19.0995L16.7284 19.5978H17.8727L18.3836 16.0093C18.3836 14.4875 17.0584 14.4385 16.5983 14.4385ZM16.8773 17.3587C16.902 17.5781 16.7397 18.6058 15.957 18.6058C15.5534 18.6058 15.4482 18.2963 15.4482 18.1133C15.4482 17.7572 15.6416 17.3289 16.5945 17.3289C16.8156 17.3289 16.8395 17.3532 16.8773 17.3587Z" fill="white"/>
<path d="M19.6001 19.6703C19.8924 19.6703 21.5661 19.7454 21.5661 18.0146C21.5661 16.3963 20.0171 16.7156 20.0171 16.0654C20.0171 15.7429 20.2696 15.6396 20.7309 15.6396C20.9142 15.6396 21.6194 15.6988 21.6194 15.6988L21.7838 14.5479C21.7838 14.5479 21.3274 14.4463 20.585 14.4463C19.6224 14.4463 18.6471 14.8297 18.6471 16.1463C18.6471 17.6392 20.2746 17.4882 20.2746 18.1165C20.2746 18.536 19.8194 18.5704 19.4688 18.5704C18.8631 18.5704 18.3174 18.3619 18.3148 18.3716L18.1416 19.5095C18.1719 19.5202 18.5091 19.6703 19.6001 19.6703Z" fill="white"/>
<path d="M45.4371 13.4061L45.1573 15.1494C45.1573 15.1494 44.6678 14.4729 43.9024 14.4729C42.7107 14.4729 41.7183 15.9116 41.7183 17.5656C41.7183 18.6331 42.2472 19.678 43.3303 19.678C44.1092 19.678 44.54 19.134 44.54 19.134L44.4834 19.5983H45.7477L46.7413 13.4033L45.4371 13.4061ZM44.8339 16.8067C44.8339 17.4943 44.4934 18.4124 43.789 18.4124C43.3209 18.4124 43.1024 18.0189 43.1024 17.4015C43.1024 16.3922 43.5546 15.7244 44.125 15.7244C44.5936 15.7245 44.8339 16.0475 44.8339 16.8067Z" fill="white"/>
<path d="M9.55916 19.6031L10.3515 14.9261L10.4669 19.6031H11.3628L13.0334 14.9261L12.2931 19.6031H13.6237L14.6493 13.4014H12.5911L11.3096 17.2059L11.2429 13.4014H9.3465L8.30664 19.6031H9.55916Z" fill="white"/>
<path d="M29.5877 19.6119C29.9661 17.4562 30.0361 15.705 30.9397 16.0242C31.0979 15.1903 31.2501 14.8678 31.4221 14.5142C31.4221 14.5142 31.3416 14.4971 31.1712 14.4971C30.5903 14.4971 30.1586 15.294 30.1586 15.294L30.2735 14.5624H29.0629L28.2529 19.6119H29.5877Z" fill="white"/>
<path d="M37.6691 14.4385C36.7778 14.4385 36.0949 14.725 36.0949 14.725L35.907 15.8475C35.907 15.8475 36.4703 15.6185 37.3231 15.6185C37.8067 15.6185 38.1612 15.6726 38.1612 16.0673C38.1612 16.3064 38.1176 16.3949 38.1176 16.3949C38.1176 16.3949 37.7363 16.3626 37.5579 16.3626C36.4338 16.3626 35.2539 16.8433 35.2539 18.2938C35.2539 19.4356 36.0286 19.6981 36.5086 19.6981C37.4259 19.6981 37.8206 19.102 37.8416 19.0995L37.7992 19.5978H38.9443L39.4548 16.0093C39.4553 14.4875 38.1306 14.4385 37.6691 14.4385ZM37.9485 17.3587C37.9733 17.5781 37.8117 18.6058 37.0278 18.6058C36.6247 18.6058 36.5202 18.2963 36.5202 18.1133C36.5202 17.7572 36.7136 17.3289 37.6649 17.3289C37.8873 17.3289 37.9104 17.3532 37.9485 17.3587Z" fill="white"/>
<path d="M40.5001 19.6119C40.8789 17.4562 40.949 15.705 41.8524 16.0242C42.0106 15.1903 42.1628 14.8678 42.3357 14.5142C42.3357 14.5142 42.2538 14.4971 42.0844 14.4971C41.5019 14.4971 41.0715 15.294 41.0715 15.294L41.1873 14.5624H39.9759L39.1655 19.6115H40.5002L40.5001 19.6119Z" fill="white"/>
</svg>
