<svg width="16" height="8" viewBox="0 0 16 8" fill="none" xmlns="http://www.w3.org/2000/svg">
<path d="M0.916504 4.5C0.640362 4.5 0.416504 4.27614 0.416504 4C0.416504 3.72386 0.640362 3.5 0.916504 3.5L0.916504 4.5ZM15.4367 3.64645C15.632 3.84171 15.632 4.15829 15.4367 4.35355L12.2547 7.53553C12.0595 7.7308 11.7429 7.7308 11.5476 7.53553C11.3524 7.34027 11.3524 7.02369 11.5476 6.82843L14.3761 4L11.5476 1.17157C11.3524 0.976311 11.3524 0.659728 11.5476 0.464466C11.7429 0.269204 12.0595 0.269204 12.2547 0.464466L15.4367 3.64645ZM0.916504 3.5L15.0832 3.5V4.5L0.916504 4.5L0.916504 3.5Z" fill="#101828"/>
</svg>
