<svg width="17" height="16" viewBox="0 0 17 16" fill="none" xmlns="http://www.w3.org/2000/svg">
<path d="M1 9C0.447715 9 0 8.55228 0 8C0 7.44772 0.447715 7 1 7L1 9ZM15.8738 7.29289C16.2643 7.68342 16.2643 8.31658 15.8738 8.70711L9.50981 15.0711C9.11929 15.4616 8.48612 15.4616 8.0956 15.0711C7.70507 14.6805 7.70507 14.0474 8.0956 13.6569L13.7525 8L8.0956 2.34315C7.70507 1.95262 7.70507 1.31946 8.0956 0.928932C8.48612 0.538408 9.11929 0.538408 9.50981 0.928932L15.8738 7.29289ZM1 7L15.1667 7V9L1 9L1 7Z" fill="white"/>
</svg>
