<svg width="64" height="32" viewBox="0 0 64 32" fill="none" xmlns="http://www.w3.org/2000/svg">
<rect width="64" height="32" rx="5" fill="white"/>
<path d="M44.5099 11.8526C43.4046 11.8526 42.5305 12.1457 41.8618 12.2796L41.6563 13.9599C41.9906 13.7992 43.0447 13.5069 43.9189 13.4792C44.7935 13.4527 45.3073 13.6394 45.1274 14.3864C42.531 14.3864 40.7822 14.9191 40.4223 16.5996C39.9077 19.48 43.0704 19.4003 44.3304 18.1466L44.1765 18.8395H46.4903L47.4928 14.2518C47.9032 12.3056 46.1298 11.8261 44.5099 11.8526ZM44.6643 16.5463C44.5359 17.1595 44.0477 17.4263 43.4563 17.4536C42.942 17.48 42.4793 17.0257 42.8137 16.4926C43.0708 16.0396 43.791 15.933 44.2276 15.933C44.4076 15.933 44.6135 15.933 44.7939 15.933C44.7414 16.1462 44.7154 16.3329 44.6643 16.5463Z" fill="#1A80AD"/>
<path d="M49.4721 10.0391L47.5576 18.8401H49.9078L51.8462 10.0391H49.4721Z" fill="#1A80AD"/>
<path d="M38.673 10.0659H34.3698L32.4629 18.8402H34.962L35.6067 15.9334H37.3844C39.1369 15.9334 40.5799 14.8667 40.9662 13.0529C41.4045 10.9993 39.91 10.0659 38.673 10.0659ZM38.5967 13.0529C38.4419 13.7194 37.7716 14.2525 37.1269 14.2525H35.9675L36.4831 11.8524H37.7197C38.3643 11.8528 38.7506 12.386 38.5967 13.0529Z" fill="#1A80AD"/>
<path d="M21.9748 11.8526C20.8824 11.8526 20.0188 12.1457 19.3833 12.2796L19.1811 13.9595C19.486 13.7989 20.5271 13.5065 21.3908 13.4789C22.2545 13.4524 22.7625 13.639 22.6094 14.3861C20.0448 14.3861 18.3179 14.9188 17.9622 16.5992C17.4538 19.4797 20.5775 19.4 21.7969 18.1462L21.645 18.8391H23.9562L24.9465 14.2515C25.3523 12.3056 23.5742 11.8261 21.9748 11.8526ZM22.1527 16.5463C22.0252 17.1595 21.5167 17.4263 20.9337 17.4536C20.4257 17.48 19.9937 17.0257 20.3242 16.4926C20.5775 16.0396 21.2889 15.933 21.6954 15.933C21.8989 15.933 22.0763 15.933 22.2801 15.933C22.2281 16.1462 22.1778 16.3329 22.1527 16.5463Z" fill="#1A5B80"/>
<path d="M25.9529 11.9805H28.2641L28.6371 16.0665L30.898 11.9805H33.283L27.7919 21.7594H25.208L26.8967 18.8849L25.9529 11.9805Z" fill="#1A5B80"/>
<path d="M16.2265 10.0664H11.9119L10 18.8407H12.5318L13.1518 15.9338H14.9601C16.6912 15.9338 18.138 14.8672 18.5255 13.0534C18.9647 10.9998 17.4925 10.0664 16.2265 10.0664ZM16.1489 13.0534C15.9941 13.7199 15.3486 14.253 14.7022 14.253H13.514L14.0568 11.8529H15.2967C15.9165 11.8533 16.3297 12.3865 16.1489 13.0534Z" fill="#1A5B80"/>
<path d="M52.3538 11.1774V10.1392H51.9666V10H52.8995V10.1392H52.5102V11.1774H52.3538Z" fill="#1A5B80"/>
<path d="M53.0535 11.1774V10H53.2871L53.566 10.833C53.592 10.9106 53.6101 10.9681 53.6222 11.0062C53.6356 10.9639 53.6566 10.901 53.6843 10.8183L53.9674 10H54.1767V11.1774H54.027V10.1917L53.6838 11.1774H53.5441L53.2031 10.1753V11.1774H53.0535Z" fill="#1A5B80"/>
</svg>
