<svg width="16" height="8" viewBox="0 0 16 8" fill="none" xmlns="http://www.w3.org/2000/svg">
<path d="M15.0835 4.5C15.3596 4.5 15.5835 4.27614 15.5835 4C15.5835 3.72386 15.3596 3.5 15.0835 3.5V4.5ZM0.563275 3.64645C0.368013 3.84171 0.368013 4.15829 0.563275 4.35355L3.74526 7.53553C3.94052 7.7308 4.2571 7.7308 4.45236 7.53553C4.64762 7.34027 4.64762 7.02369 4.45236 6.82843L1.62394 4L4.45236 1.17157C4.64762 0.976311 4.64762 0.659728 4.45236 0.464466C4.2571 0.269204 3.94052 0.269204 3.74526 0.464466L0.563275 3.64645ZM15.0835 3.5L0.916829 3.5V4.5L15.0835 4.5V3.5Z" fill="#667085"/>
</svg>
