<svg width="14" height="14" viewBox="0 0 14 14" fill="none" xmlns="http://www.w3.org/2000/svg">
<path fill-rule="evenodd" clip-rule="evenodd" d="M6.45459 13.4966C6.45459 13.7727 6.67845 13.9966 6.95459 13.9966C7.23073 13.9966 7.45459 13.7727 7.45459 13.4966V7.49989H13.4085C13.6846 7.49989 13.9085 7.27603 13.9085 6.99989C13.9085 6.72375 13.6846 6.49989 13.4085 6.49989H7.45459V0.503174C7.45459 0.227032 7.23073 0.00317383 6.95459 0.00317383C6.67845 0.00317383 6.45459 0.227032 6.45459 0.503174V6.49989H0.5C0.223858 6.49989 0 6.72375 0 6.99989C0 7.27603 0.223858 7.49989 0.5 7.49989H6.45459V13.4966Z" fill="#101828"/>
</svg>
