<svg width="57" height="32" viewBox="0 0 57 32" fill="none" xmlns="http://www.w3.org/2000/svg">
<rect width="57" height="32" rx="5" fill="white"/>
<path d="M20.8452 22.1966L22.878 10.1934H26.169L24.1363 22.1966H20.8452Z" fill="#293688"/>
<path d="M35.8523 10.5038C35.2001 10.2605 34.1783 10 32.9022 10C29.6497 10 27.3586 11.6284 27.3389 13.9614C27.3209 15.6857 28.9744 16.6476 30.2235 17.2222C31.5045 17.8094 31.9353 18.1862 31.9291 18.7109C31.9211 19.5155 30.9056 19.8833 29.9593 19.8833C28.6422 19.8828 27.9421 19.7012 26.8611 19.2533L26.4371 19.062L25.9749 21.7491C26.7438 22.0843 28.1657 22.375 29.6417 22.3897C33.101 22.3889 35.3476 20.7807 35.3728 18.2886C35.3854 16.9233 34.5083 15.8843 32.6094 15.0273C31.4588 14.4728 30.7541 14.1024 30.7617 13.5395C30.7617 13.0408 31.3586 12.5073 32.6467 12.5073C33.723 12.4905 34.5028 12.7238 35.1106 12.967L35.4051 13.1055L35.8523 10.5038Z" fill="#293688"/>
<path d="M41.4635 10.1934C40.675 10.1934 40.1053 10.4342 39.7588 11.2156L34.8813 22.1971H38.3658L39.0433 20.3577H43.2064L43.5932 22.1971H46.6909L43.9808 10.1937H41.4637L41.4635 10.1934ZM39.9678 17.9559C40.2396 17.2647 41.2786 14.601 41.2786 14.601C41.2597 14.6325 41.5491 13.9064 41.7152 13.4559L41.938 14.4902C41.938 14.4902 42.5675 17.3556 42.6997 17.9562H39.9678V17.9559Z" fill="#293688"/>
<path d="M14.8436 18.4214L14.5537 16.7759C13.9531 14.8577 12.0889 12.7823 10 11.7424L12.9077 22.1966H16.393L21.6199 10.1934H18.1354L14.8436 18.4214Z" fill="#293688"/>
</svg>
