<svg width="16" height="16" viewBox="0 0 16 16" fill="none" xmlns="http://www.w3.org/2000/svg">
<path fill-rule="evenodd" clip-rule="evenodd" d="M5.63379 7.80005C5.63379 7.52391 5.85765 7.30005 6.13379 7.30005H9.46712C9.74327 7.30005 9.96712 7.52391 9.96712 7.80005C9.96712 8.07619 9.74327 8.30005 9.46712 8.30005H6.13379C5.85765 8.30005 5.63379 8.07619 5.63379 7.80005Z" fill="#292D32"/>
<path fill-rule="evenodd" clip-rule="evenodd" d="M7.7998 5.6333C8.07595 5.6333 8.2998 5.85716 8.2998 6.1333V9.46663C8.2998 9.74278 8.07595 9.96663 7.7998 9.96663C7.52366 9.96663 7.2998 9.74278 7.2998 9.46663V6.1333C7.2998 5.85716 7.52366 5.6333 7.7998 5.6333Z" fill="#292D32"/>
<path fill-rule="evenodd" clip-rule="evenodd" d="M7.66683 1.83325C4.44517 1.83325 1.8335 4.44492 1.8335 7.66659C1.8335 10.8882 4.44517 13.4999 7.66683 13.4999C10.8885 13.4999 13.5002 10.8882 13.5002 7.66659C13.5002 4.44492 10.8885 1.83325 7.66683 1.83325ZM0.833496 7.66659C0.833496 3.89264 3.89288 0.833252 7.66683 0.833252C11.4408 0.833252 14.5002 3.89264 14.5002 7.66659C14.5002 11.4405 11.4408 14.4999 7.66683 14.4999C3.89288 14.4999 0.833496 11.4405 0.833496 7.66659Z" fill="#292D32"/>
<path fill-rule="evenodd" clip-rule="evenodd" d="M12.9795 12.9797C13.1747 12.7844 13.4913 12.7844 13.6866 12.9797L15.0199 14.313C15.2152 14.5083 15.2152 14.8249 15.0199 15.0201C14.8246 15.2154 14.508 15.2154 14.3128 15.0201L12.9795 13.6868C12.7842 13.4915 12.7842 13.175 12.9795 12.9797Z" fill="#292D32"/>
</svg>
